<svg width="17" height="20" viewBox="0 0 17 20" fill="none" xmlns="http://www.w3.org/2000/svg">
<path d="M8.50022 18.75C9.17035 18.75 9.7145 18.1883 9.7145 17.4988H10.9288C10.9288 18.8781 9.83897 20 8.50022 20C7.16147 20 6.07164 18.8781 6.07164 17.4988H7.28593C7.28593 18.1883 7.83008 18.75 8.50022 18.75ZM0.554991 13.0785C1.61597 12.0387 2.42727 10.9504 2.42727 7.26172C2.42727 4.15273 4.83269 1.61719 7.89307 1.31055V0.625C7.89307 0.279687 8.16477 0 8.50022 0C8.83566 0 9.10736 0.279687 9.10736 0.625V1.31094C12.1677 1.61758 14.5732 4.15273 14.5732 7.26172C14.5732 10.95 15.3848 12.0387 16.4458 13.0785C16.9759 13.598 17.1433 14.3836 16.8727 15.0797C16.5965 15.7906 15.9316 16.25 15.1788 16.25H1.82164C1.06879 16.25 0.403964 15.7902 0.127713 15.0793C-0.142845 14.3832 0.0248781 13.598 0.554991 13.0785ZM1.82164 15H15.1788C15.7188 15 15.9886 14.3566 15.6083 13.984C14.2855 12.6875 13.3589 11.2363 13.3589 7.26211C13.3589 4.63008 11.1857 2.5 8.50022 2.5C5.81513 2.5 3.64155 4.62969 3.64155 7.26172C3.64155 11.2207 2.72287 12.6797 1.39209 13.9836C1.01035 14.3582 1.28394 15 1.82164 15Z" fill="#C4C4C4"/>
</svg>
